HIERARCHY
ROOT HipCenter
{
    OFFSET 0.0 0.0 -0.0
    CHANNELS 6 Xposition Yposition Zposition Zrotation Xrotation Yrotation
    JOINT Spine
    {
        OFFSET 0.0 11.320340156555176 0.0
        CHANNELS 3 Zrotation Xrotation Yrotation
        JOINT ShoulderCenter
        {
            OFFSET 0.0 32.61629867553711 0.0
            CHANNELS 3 Zrotation Xrotation Yrotation
            JOINT LeftShoulder
            {
                OFFSET 18.403051376342773 0.0 0.0
                CHANNELS 3 Zrotation Xrotation Yrotation
                JOINT LeftElbow
                {
                    OFFSET 32.475563049316406 0.0 0.0
                    CHANNELS 3 Zrotation Xrotation Yrotation
                    JOINT LeftWrist
                    {
                        OFFSET 30.971664428710938 0.0 0.0
                        CHANNELS 3 Zrotation Xrotation Yrotation
                        JOINT LeftHand
                        {
                            OFFSET 3.392228841781616 0.0 0.0
                            CHANNELS 3 Zrotation Xrotation Yrotation
                            End Site
                            {
                                OFFSET 1.3568916320800781 0.0 0.0
                            }
                        }
                    }
                }
            }
            JOINT RightShoulder
            {
                OFFSET -18.403051376342773 0.0 0.0
                CHANNELS 3 Zrotation Xrotation Yrotation
                JOINT RightElbow
                {
                    OFFSET -32.475563049316406 0.0 0.0
                    CHANNELS 3 Zrotation Xrotation Yrotation
                    JOINT RightWrist
                    {
                        OFFSET -30.971664428710938 0.0 0.0
                        CHANNELS 3 Zrotation Xrotation Yrotation
                        JOINT RightHand
                        {
                            OFFSET -3.392228841781616 0.0 0.0
                            CHANNELS 3 Zrotation Xrotation Yrotation
                            End Site
                            {
                                OFFSET -1.3568916320800781 0.0 0.0
                            }
                        }
                    }
                }
            }
            End Site
            {
                OFFSET 0.0 13.046518325805664 0.0
            }
        }
    }
    JOINT LeftHip
    {
        OFFSET 14.509258270263672 0.0 0.0
        CHANNELS 3 Zrotation Xrotation Yrotation
        JOINT LeftKnee
        {
            OFFSET 0.0 -42.4261474609375 0.0
            CHANNELS 3 Zrotation Xrotation Yrotation
            JOINT LeftAnkle
            {
                OFFSET 0.0 -46.0966796875 0.0
                CHANNELS 3 Zrotation Xrotation Yrotation
                JOINT LeftFoot
                {
                    OFFSET 0.0 -13.585254669189453 0.0
                    CHANNELS 3 Zrotation Xrotation Yrotation
                    End Site
                    {
                        OFFSET 0.0 0.0 5.434101581573486
                    }
                }
            }
        }
    }
    JOINT RightHip
    {
        OFFSET -14.509258270263672 0.0 0.0
        CHANNELS 3 Zrotation Xrotation Yrotation
        JOINT RightKnee
        {
            OFFSET 0.0 -42.4261474609375 0.0
            CHANNELS 3 Zrotation Xrotation Yrotation
            JOINT RightAnkle
            {
                OFFSET 0.0 -46.0966796875 0.0
                CHANNELS 3 Zrotation Xrotation Yrotation
                JOINT RightFoot
                {
                    OFFSET 0.0 -13.585254669189453 0.0
                    CHANNELS 3 Zrotation Xrotation Yrotation
                    End Site
                    {
                        OFFSET 0.0 0.0 5.434101581573486
                    }
                }
            }
        }
    }
}
MOTION
Frames: 7
Frame Time: 0.03333333333333333
-5.799999713897705 2.299999952316284 21.899999618530273 -1.5207682962459224 -5.557993330531877 -2.9969143128593054 -2.228217287500153 1.0493776233902532 0.06349454625108715 -3.504855154123141e-07 -1.8510738829205878e-07 -3.149695018526757 148.43833859648805 0.49367470193666413 -171.08127395907746 -1.7661243612792518e-06 -2.3885736985010623e-06 112.42350621811732 -9.78672417303398e-05 -88.24346144885315 31.72591142264032 -1.3241718894150476e-31 -6.3611093629270335e-15 -2.3854160110976376e-15 -146.81524833088298 35.062545484918154 172.80588625164577 2.3556053917189062e-07 3.339411898877931e-06 -117.10442705941685 -1.5755522593118648e-06 -44.28167117708753 -35.547299195954366 2.2069531490250793e-32 1.5902773407317584e-15 -1.5902773407317584e-15 15.862046786963733 -0.7886375163557579 -24.94668639392257 -11.30775238529764 28.27484693166642 -31.509759361631403 90.16507059886202 -24.223429843505272 157.22593048386247 -4.770832022195277e-15 6.620859447075238e-32 -1.5902773407317588e-15 -4.937676741606295 -0.06798908638012262 20.073415881587223 -2.520543896585336 27.408300583043584 35.83310205271948 -90.30876797539416 -47.43847388794138 -147.16412810123563 -3.1805546814635164e-15 5.5659706925611536e-15 -1.590277340731758e-15
-5.600000381469727 2.0999999046325684 21.399999618530273 -1.013980018656617 -4.553055297108257 -2.9341272046907796 -1.9997871133915885 0.5932916827105827 0.02883088143933175 1.7244452597424724e-07 2.0347374943271438e-07 -3.699682486852863 146.47728018968976 -3.034589467652973 -170.7590086054004 2.7429886410209772e-06 1.2259098260303937e-06 106.56981295384381 6.954319158097452e-05 -88.0667082829472 31.651496030229776 -6.3611093629270335e-15 -2.825934540040707e-31 5.0907510966002966e-15 -144.834046212608 29.840953281937132 172.77738951134765 -1.2565322693967793e-06 -7.689755532200347e-07 -114.26405389571863 -7.225203065455803e-07 -39.65346705371458 -36.061535286650766 0.0 0.0 0.0 14.983538090154232 -1.396196370726128 -26.211260535693697 -10.959518859839664 27.29936558794382 -30.367505143375585 91.53708232124654 -23.86328380657869 158.62249118952093 0.0 0.0 3.1805546814635168e-15 -5.63781956534212 -1.7993586761222058 19.622425123205332 -2.2366104980485098 27.97605875415773 35.9018403790604 -90.48146559546454 -48.169580034998795 -146.4303156892146 -1.9862578341225716e-31 -7.156248033292914e-15 -3.1805546814635168e-15
-5.5 1.7999999523162842 20.900001525878906 -1.0139803479461371 -4.048955857544131 -2.859042629491293 -1.46756269149815 0.46760340699763364 0.010811439785010488 1.1264487782519762e-07 -2.7869986576581886e-07 -3.832212843430555 145.64295805631207 -5.210681234987504 -169.37652184721688 2.081656155124204e-06 6.329333931220532e-07 101.28073962503538 -1.3029650338138182e-05 -89.22085292910097 33.84199787404314 -6.3611093629270335e-15 -6.3611093629270335e-15 7.951386703658788e-16 -143.81043705777958 24.908950781117987 172.11333914644052 2.531899971116593e-06 4.881721901405985e-07 -109.95006105669394 2.8055463928889575e-06 -39.6818849517992 -36.178636214053945 0.0 0.0 0.0 14.573902834015147 -1.3805387419493254 -26.38705678076156 -9.730958507961832 26.582142016341688 -31.153251915625475 93.16033901923898 -22.87179791936591 161.40187903556574 -2.2069531490250793e-32 1.5902773407317582e-15 1.5902773407317582e-15 -5.275380686394421 -3.5028536012565588 16.97043584983438 -3.6985762035379617 29.391203432859086 38.23267179772926 -90.74413853545842 -48.45502707736704 -146.4300689576176 -3.1805546814635164e-15 6.361109362927033e-15 1.7655625192200634e-31
-5.400000095367432 1.7999999523162842 20.5 -1.5207707131093542 -4.048165815730282 -2.6009048078749997 -0.6101337532401324 0.5124896688641352 0.01173399947455203 -3.86605650357724e-09 -3.3566453426125573e-07 -3.8385477866055653 145.79332843419988 -6.567679393922491 -167.84391831761118 -3.659851874699843e-06 -6.839544041277141e-07 96.4633022721645 -1.9185066895507752e-05 -86.86110430575094 33.65650267366602 -6.3611093629270335e-15 -1.7655625192200634e-31 3.1805546814635168e-15 -143.8031476249772 20.307453591523597 171.451519246785 4.462947039868116e-07 5.889650695372053e-06 -104.89550001807072 5.993018878875811e-06 -35.35703160598655 -36.889056374444905 -6.3611093629270335e-15 1.5902773407317584e-15 8.827812596100317e-32 14.900512633681778 -1.0292893785487067 -25.28875296447274 -8.287822781329174 25.640074174017762 -31.365272536441584 93.74990412451919 -24.41599461220262 161.5352646233727 0.0 0.0 1.5902773407317584e-15 -4.610247574493935 -4.260269139617647 14.959166163148545 -4.952098383905219 30.433926250233416 41.23500930451381 -90.51710772891202 -47.35111763653309 -147.228843668072 0.0 0.0 1.5902773407317582e-15
-5.299999713897705 1.899999976158142 20.100000381469727 -1.5207682092885095 -3.543514664276914 -1.0077042112143695 -0.9500220642268431 0.7192191227071657 0.022267097167582 -6.374244417111836e-08 2.9152612130525323e-07 -4.482144388086533 147.0715172953327 -6.806985027205949 -166.06913765651908 -1.7128400473790812e-06 1.73591339381049e-06 93.0374208887678 2.832338989367898e-05 -84.62281031536617 33.290750825228926 -6.3611093629270335e-15 6.361109362927033e-15 7.951386703658792e-15 -142.92993462092116 16.86988816475121 170.21760589497507 1.2128973923283128e-07 1.3111657050316806e-06 -100.05399070592495 3.950259478259644e-06 -37.68851833157967 -35.70739966142852 0.0 0.0 0.0 15.04124234052874 -2.2014528592641325 -23.580885258696 -6.815818519177894 25.59944278012035 -33.131213778109434 92.79218543132848 -26.73889378765383 160.34397300269535 5.29668755766019e-31 6.3611093629270335e-15 -9.54166404439055e-15 -4.454764282225614 -4.360897127585773 15.115698358220191 -4.70695077766751 30.03787393636624 40.48592086835331 -91.05018043677127 -46.07380534944952 -148.2778888182507 -6.3611093629270335e-15 6.3611093629270335e-15 3.531125038440127e-31
-5.200000286102295 2.0999999046325684 19.799999237060547 -2.0273229344699786 -3.542547072569486 0.5300323941818152 -0.07227683203985406 0.9105807747355841 0.028889743754688883 1.8637369475971296e-07 -7.076310992022057e-08 -4.33035753911993 148.18850887097577 -7.275353336468402 -165.5155577677817 -2.5943461518864425e-06 -1.589645149233011e-06 91.69412796387272 6.886863242907149e-05 -87.06919084138386 32.79339127071127 0.0 0.0 9.541664044390549e-15 -143.33962133520032 13.844024860727915 169.68911256607515 2.0378869608294826e-06 -9.732511895898987e-07 -96.08288492788178 2.617713065970828e-06 -34.16364965797672 -36.56490045925387 6.361109362927033e-15 0.0 0.0 15.732612091055834 -3.0111620532652235 -21.41279526699144 -5.700633218487274 25.569919584932727 -34.40764588370676 92.57611263918258 -29.834883963345508 158.98151125572127 0.0 0.0 -3.1805546814635168e-15 -4.201135784042498 -3.8340545659186414 15.786365280200304 -3.7171666942291695 29.58664420966496 39.83585075779217 -90.91415640655106 -44.198650381459025 -149.10733762708776 0.0 0.0 1.5902773407317588e-15
-5.0 2.299999952316284 19.5 -1.5207706749593366 -2.532667705138807 2.5034671357071936 -0.5829422900365655 0.1007121200394653 0.0027731982262457064 7.07811497529059e-08 3.330364664663614e-08 -3.5868993207922517 149.55606104095918 -7.254325153533997 -165.70300835778988 2.9056269788120602e-06 1.2706746205743417e-07 90.91706317310702 8.713899345136799e-06 -85.3997571619465 33.076182123043964 0.0 0.0 9.541664044390553e-15 -143.6630392405744 11.159134123227792 169.555559726118 4.2158140481221773e-07 2.8247312880718994e-06 -93.35702868437595 2.032641942856987e-06 -29.35590229888936 -37.285743635517456 0.0 -1.5902773407317584e-15 0.0 15.22688452035177 -5.0377596382106935 -18.613386090962994 -4.193360038711446 25.78704257945929 -37.24445457695923 91.30864507516306 -31.068131317208653 158.5447644054602 4.413906298050159e-31 7.951386703658792e-15 -6.3611093629270335e-15 -4.856567962876403 -3.994444887960459 16.023189591086684 -3.171147022341463 28.651328440622752 38.03970246420785 -90.75550675363169 -43.52187673287959 -149.26577239102537 3.1805546814635164e-15 -6.361109362927033e-15 1.5902773407317584e-15
